<svg xmlns="http://www.w3.org/2000/svg" xmlns:xlink="http://www.w3.org/1999/xlink" width="500" zoomAndPan="magnify" viewBox="0 0 375 374.999991" height="500" preserveAspectRatio="xMidYMid meet" version="1.0"><defs><clipPath id="1fa7294a3f"><path d="M 44 25.054688 L 331 25.054688 L 331 349.804688 L 44 349.804688 Z M 44 25.054688 " clip-rule="nonzero"/></clipPath></defs><g clip-path="url(#1fa7294a3f)"><path fill="#000000" d="M 178.386719 81.25 C 196.238281 92.597656 208.679688 111.511719 210.839844 133.125 C 217.875 136.367188 225.988281 138.527344 234.640625 138.527344 C 266.011719 138.527344 291.433594 113.132812 291.433594 81.792969 C 291.433594 50.453125 266.011719 25.054688 234.640625 25.054688 C 203.808594 25.597656 178.386719 50.453125 178.386719 81.25 Z M 141.066406 196.886719 C 172.4375 196.886719 197.859375 171.488281 197.859375 140.148438 C 197.859375 108.808594 172.4375 83.414062 141.066406 83.414062 C 109.695312 83.414062 84.273438 108.808594 84.273438 140.148438 C 84.273438 171.488281 109.695312 196.886719 141.066406 196.886719 Z M 164.867188 200.667969 L 116.726562 200.667969 C 76.699219 200.667969 44.246094 233.089844 44.246094 273.074219 L 44.246094 333.054688 L 48.03125 334.136719 C 85.894531 346.023438 119.429688 349.804688 146.476562 349.804688 C 199.484375 349.804688 230.3125 334.675781 232.476562 333.59375 L 236.261719 331.433594 L 236.804688 331.433594 L 236.804688 273.074219 C 237.34375 233.089844 204.890625 200.667969 164.867188 200.667969 Z M 258.441406 142.3125 L 210.839844 142.3125 C 210.300781 161.222656 202.1875 178.515625 189.207031 190.941406 C 224.90625 201.75 250.867188 234.171875 250.867188 273.074219 L 250.867188 290.90625 C 297.925781 289.285156 324.96875 275.777344 326.59375 275.238281 L 330.378906 273.074219 L 330.921875 273.074219 L 330.921875 214.71875 C 330.921875 174.730469 298.464844 142.3125 258.441406 142.3125 Z M 258.441406 142.3125 " fill-opacity="1" fill-rule="nonzero"/></g></svg>