<svg xmlns="http://www.w3.org/2000/svg" xmlns:xlink="http://www.w3.org/1999/xlink" width="500" zoomAndPan="magnify" viewBox="0 0 375 374.999991" height="500" preserveAspectRatio="xMidYMid meet" version="1.0"><defs><clipPath id="ed807a7983"><path d="M 102 11.445312 L 274 11.445312 L 274 194 L 102 194 Z M 102 11.445312 " clip-rule="nonzero"/></clipPath><clipPath id="fc784d016b"><path d="M 27.070312 194 L 348 194 L 348 363.195312 L 27.070312 363.195312 Z M 27.070312 194 " clip-rule="nonzero"/></clipPath></defs><g clip-path="url(#ed807a7983)"><path fill="#000000" d="M 187.570312 193.902344 C 234.726562 193.902344 273.082031 143.925781 273.082031 96.84375 C 273.082031 49.757812 234.726562 11.445312 187.570312 11.445312 C 140.414062 11.445312 102.054688 49.757812 102.054688 96.84375 C 102.0625 143.921875 140.417969 193.902344 187.570312 193.902344 Z M 187.570312 193.902344 " fill-opacity="1" fill-rule="nonzero"/></g><g clip-path="url(#fc784d016b)"><path fill="#000000" d="M 251.765625 194.777344 C 235.179688 207.398438 214.488281 214.90625 192.070312 214.90625 L 183.070312 214.90625 C 160.648438 214.90625 139.953125 207.394531 123.371094 194.777344 C 69.207031 203.519531 27.851562 250.398438 27.851562 306.941406 C 27.851562 338.007812 99.359375 363.195312 187.570312 363.195312 C 275.777344 363.195312 347.289062 338.007812 347.289062 306.941406 C 347.289062 250.398438 305.929688 203.519531 251.765625 194.777344 Z M 251.765625 194.777344 " fill-opacity="1" fill-rule="nonzero"/></g></svg>