<svg xmlns="http://www.w3.org/2000/svg" xmlns:xlink="http://www.w3.org/1999/xlink" width="500" zoomAndPan="magnify" viewBox="0 0 375 374.999991" height="500" preserveAspectRatio="xMidYMid meet" version="1.0"><defs><clipPath id="bb20256e39"><path d="M 9.632812 10.515625 L 25.382812 10.515625 L 25.382812 27 L 9.632812 27 Z M 9.632812 10.515625 " clip-rule="nonzero"/></clipPath><clipPath id="c620cc832c"><path d="M 9.632812 48 L 25.382812 48 L 25.382812 64 L 9.632812 64 Z M 9.632812 48 " clip-rule="nonzero"/></clipPath><clipPath id="cf9b5d34bd"><path d="M 9.632812 85 L 25.382812 85 L 25.382812 102 L 9.632812 102 Z M 9.632812 85 " clip-rule="nonzero"/></clipPath><clipPath id="72b9960177"><path d="M 9.632812 123 L 25.382812 123 L 25.382812 140 L 9.632812 140 Z M 9.632812 123 " clip-rule="nonzero"/></clipPath><clipPath id="ce98b80117"><path d="M 9.632812 160 L 25.382812 160 L 25.382812 177 L 9.632812 177 Z M 9.632812 160 " clip-rule="nonzero"/></clipPath><clipPath id="c5ed111b88"><path d="M 9.632812 198 L 25.382812 198 L 25.382812 215 L 9.632812 215 Z M 9.632812 198 " clip-rule="nonzero"/></clipPath><clipPath id="b98dfb6bf3"><path d="M 9.632812 235 L 25.382812 235 L 25.382812 252 L 9.632812 252 Z M 9.632812 235 " clip-rule="nonzero"/></clipPath><clipPath id="bfdaf58812"><path d="M 9.632812 273 L 25.382812 273 L 25.382812 290 L 9.632812 290 Z M 9.632812 273 " clip-rule="nonzero"/></clipPath><clipPath id="22a236513a"><path d="M 9.632812 311 L 25.382812 311 L 25.382812 327 L 9.632812 327 Z M 9.632812 311 " clip-rule="nonzero"/></clipPath><clipPath id="fb43e1d844"><path d="M 9.632812 348 L 25.382812 348 L 25.382812 364.515625 L 9.632812 364.515625 Z M 9.632812 348 " clip-rule="nonzero"/></clipPath></defs><g clip-path="url(#bb20256e39)"><path fill="#00ffff" d="M 17.5625 10.5 C 21.957031 10.5 25.523438 14.0625 25.523438 18.460938 C 25.523438 22.855469 21.957031 26.421875 17.5625 26.421875 C 13.164062 26.421875 9.601562 22.855469 9.601562 18.460938 C 9.601562 14.0625 13.164062 10.5 17.5625 10.5 " fill-opacity="1" fill-rule="nonzero"/></g><g clip-path="url(#c620cc832c)"><path fill="#00ffff" d="M 17.5625 48.066406 C 21.957031 48.066406 25.523438 51.628906 25.523438 56.023438 C 25.523438 60.421875 21.957031 63.984375 17.5625 63.984375 C 13.164062 63.984375 9.601562 60.421875 9.601562 56.023438 C 9.601562 51.628906 13.164062 48.066406 17.5625 48.066406 " fill-opacity="1" fill-rule="nonzero"/></g><g clip-path="url(#cf9b5d34bd)"><path fill="#00ffff" d="M 17.5625 85.628906 C 21.957031 85.628906 25.523438 89.191406 25.523438 93.585938 C 25.523438 97.984375 21.957031 101.546875 17.5625 101.546875 C 13.164062 101.546875 9.601562 97.984375 9.601562 93.585938 C 9.601562 89.191406 13.164062 85.628906 17.5625 85.628906 " fill-opacity="1" fill-rule="nonzero"/></g><g clip-path="url(#72b9960177)"><path fill="#00ffff" d="M 17.5625 123.191406 C 21.957031 123.191406 25.523438 126.757812 25.523438 131.148438 C 25.523438 135.546875 21.957031 139.113281 17.5625 139.113281 C 13.164062 139.113281 9.601562 135.546875 9.601562 131.148438 C 9.601562 126.757812 13.164062 123.191406 17.5625 123.191406 " fill-opacity="1" fill-rule="nonzero"/></g><g clip-path="url(#ce98b80117)"><path fill="#00ffff" d="M 17.5625 160.753906 C 21.957031 160.753906 25.523438 164.320312 25.523438 168.714844 C 25.523438 173.113281 21.957031 176.675781 17.5625 176.675781 C 13.164062 176.675781 9.601562 173.113281 9.601562 168.714844 C 9.601562 164.320312 13.164062 160.753906 17.5625 160.753906 " fill-opacity="1" fill-rule="nonzero"/></g><g clip-path="url(#c5ed111b88)"><path fill="#00ffff" d="M 17.5625 198.316406 C 21.957031 198.316406 25.523438 201.882812 25.523438 206.277344 C 25.523438 210.675781 21.957031 214.238281 17.5625 214.238281 C 13.164062 214.238281 9.601562 210.675781 9.601562 206.277344 C 9.601562 201.882812 13.164062 198.316406 17.5625 198.316406 " fill-opacity="1" fill-rule="nonzero"/></g><g clip-path="url(#b98dfb6bf3)"><path fill="#00ffff" d="M 17.5625 235.878906 C 21.957031 235.878906 25.523438 239.445312 25.523438 243.84375 C 25.523438 248.238281 21.957031 251.804688 17.5625 251.804688 C 13.164062 251.804688 9.601562 248.238281 9.601562 243.84375 C 9.601562 239.445312 13.164062 235.878906 17.5625 235.878906 " fill-opacity="1" fill-rule="nonzero"/></g><g clip-path="url(#bfdaf58812)"><path fill="#00ffff" d="M 17.5625 273.445312 C 21.957031 273.445312 25.523438 277.007812 25.523438 281.40625 C 25.523438 285.804688 21.957031 289.367188 17.5625 289.367188 C 13.164062 289.367188 9.601562 285.804688 9.601562 281.40625 C 9.601562 277.007812 13.164062 273.445312 17.5625 273.445312 " fill-opacity="1" fill-rule="nonzero"/></g><g clip-path="url(#22a236513a)"><path fill="#00ffff" d="M 17.5625 311.007812 C 21.957031 311.007812 25.523438 314.570312 25.523438 318.96875 C 25.523438 323.367188 21.957031 326.929688 17.5625 326.929688 C 13.164062 326.929688 9.601562 323.367188 9.601562 318.96875 C 9.601562 314.570312 13.164062 311.007812 17.5625 311.007812 " fill-opacity="1" fill-rule="nonzero"/></g><g clip-path="url(#fb43e1d844)"><path fill="#00ffff" d="M 17.5625 348.574219 C 21.957031 348.574219 25.523438 352.136719 25.523438 356.535156 C 25.523438 360.929688 21.957031 364.496094 17.5625 364.496094 C 13.164062 364.496094 9.601562 360.929688 9.601562 356.535156 C 9.601562 352.136719 13.164062 348.574219 17.5625 348.574219 " fill-opacity="1" fill-rule="nonzero"/></g></svg>