<svg xmlns="http://www.w3.org/2000/svg" xmlns:xlink="http://www.w3.org/1999/xlink" width="500" zoomAndPan="magnify" viewBox="0 0 375 374.999991" height="500" preserveAspectRatio="xMidYMid meet" version="1.0"><defs><clipPath id="247ebef751"><path d="M 12 4.132812 L 18 4.132812 L 18 75 L 12 75 Z M 12 4.132812 " clip-rule="nonzero"/></clipPath><clipPath id="de45fe2cc5"><path d="M 14 367 L 15 367 L 15 367.882812 L 14 367.882812 Z M 14 367 " clip-rule="nonzero"/></clipPath><clipPath id="ebc544f5e2"><path d="M 23 327 L 23.242188 327 L 23.242188 328 L 23 328 Z M 23 327 " clip-rule="nonzero"/></clipPath><clipPath id="6b0dd041b4"><path d="M 14 366 L 15 366 L 15 367.882812 L 14 367.882812 Z M 14 366 " clip-rule="nonzero"/></clipPath></defs><path fill="#00ffff" d="M 18.429688 250.265625 L 18.59375 250.378906 L 18.613281 250.195312 Z M 17.121094 292.765625 C 17.089844 292.851562 17.0625 292.9375 17.03125 293.023438 C 17.125 292.96875 17.222656 292.914062 17.316406 292.859375 C 17.253906 292.828125 17.1875 292.796875 17.121094 292.765625 Z M 16.691406 203.417969 C 19.566406 204.808594 18.808594 207.476562 18.90625 209.816406 C 19.074219 213.828125 19.195312 217.84375 19.25 221.863281 C 19.257812 222.519531 18.835938 223.1875 18.582031 223.839844 C 18.308594 224.554688 17.542969 225.585938 17.777344 225.914062 C 20.191406 229.261719 18.773438 232.886719 18.820312 236.417969 C 18.839844 237.828125 19.722656 239.21875 19.753906 240.628906 C 19.777344 241.695312 19.058594 242.773438 18.703125 243.855469 C 18.308594 245.054688 16.777344 246.890625 20.128906 245.984375 C 19.976562 247.675781 19.828125 249.117188 19.734375 250.5625 C 19.714844 250.882812 20.019531 251.476562 19.960938 251.503906 C 15.3125 253.828125 18.953125 257.664062 18.457031 260.703125 C 17.621094 265.785156 17.914062 271.050781 17.644531 276.234375 C 17.609375 276.917969 17.050781 277.570312 16.734375 278.238281 C 16.707031 278.097656 16.675781 277.957031 16.644531 277.816406 C 16.714844 277.863281 16.785156 277.914062 16.851562 277.960938 C 16.796875 278.039062 16.738281 278.117188 16.683594 278.195312 C 16.855469 281.207031 17.019531 284.21875 17.222656 287.226562 C 17.25 287.632812 17.503906 288.023438 17.648438 288.425781 L 17.613281 288.351562 C 17.824219 289.757812 18.035156 291.167969 18.242188 292.578125 C 18.40625 292.554688 18.566406 292.535156 18.730469 292.515625 C 18.796875 291.332031 18.859375 290.148438 18.925781 288.960938 C 19.089844 288.964844 19.253906 288.96875 19.417969 288.976562 C 19.417969 290.902344 19.417969 292.828125 19.417969 294.929688 C 18.566406 294.890625 17.585938 294.847656 16.472656 294.800781 C 16.472656 296.78125 16.472656 298.824219 16.472656 301.085938 C 16.621094 300.175781 16.738281 299.453125 16.859375 298.734375 C 17.171875 298.773438 17.484375 298.8125 17.796875 298.851562 C 17.140625 303.175781 16.484375 307.496094 15.832031 311.816406 C 15.546875 311.867188 15.261719 311.914062 14.976562 311.964844 C 14.859375 310.398438 14.632812 308.832031 14.660156 307.269531 C 14.699219 305.171875 15.074219 303.074219 15.066406 300.980469 C 15.023438 290.335938 14.871094 279.695312 14.816406 269.050781 C 14.75 256.613281 14.839844 244.171875 14.675781 231.738281 C 14.570312 223.425781 14.164062 215.117188 13.839844 206.808594 C 13.75 204.585938 13.460938 202.375 13.273438 200.144531 C 13.351562 200.121094 13.425781 200.101562 13.496094 200.085938 C 13.398438 200.132812 13.300781 200.183594 13.203125 200.230469 C 13.253906 199.9375 13.304688 199.640625 13.359375 199.347656 L 13.386719 199.375 C 13.390625 199.109375 13.394531 198.847656 13.398438 198.582031 L 13.421875 198.601562 C 13.253906 195.507812 12.980469 192.414062 12.933594 189.320312 C 12.855469 183.898438 12.914062 178.476562 12.914062 172.941406 C 13.621094 173.265625 14.089844 173.476562 14.558594 173.691406 C 14.683594 173.570312 14.808594 173.449219 14.933594 173.328125 C 14.25 172.441406 13.5625 171.554688 12.277344 169.890625 C 13.9375 170.367188 14.867188 170.632812 15.800781 170.902344 L 15.742188 170.84375 C 16.03125 181.71875 16.316406 192.59375 16.613281 203.464844 C 16.644531 203.445312 16.667969 203.433594 16.691406 203.417969 " fill-opacity="1" fill-rule="nonzero"/><path fill="#00ffff" d="M 13.757812 110.617188 L 13.644531 110.789062 L 13.820312 110.8125 Z M 17.265625 105.925781 C 17.210938 106.121094 17.179688 106.230469 17.148438 106.339844 C 17.210938 106.316406 17.316406 106.300781 17.324219 106.273438 C 17.335938 106.195312 17.304688 106.109375 17.265625 105.925781 Z M 13.722656 112.558594 L 13.867188 112.339844 L 13.671875 112.285156 Z M 13.457031 76.1875 C 13.90625 75.496094 14.355469 74.804688 14.800781 74.113281 L 14.734375 74.183594 C 15.042969 74.140625 15.347656 74.097656 15.652344 74.054688 C 15.722656 74.097656 15.796875 74.144531 15.867188 74.191406 C 15.804688 74.246094 15.738281 74.296875 15.675781 74.351562 C 15.636719 74.28125 15.597656 74.210938 15.558594 74.144531 C 15.332031 73.988281 15.292969 73.789062 15.4375 73.558594 L 15.488281 73.46875 C 15.972656 74.261719 16.960938 75.113281 16.871094 75.832031 C 15.605469 85.792969 17.660156 95.59375 18.046875 105.46875 C 18.207031 109.585938 17.203125 113.734375 17.101562 117.878906 C 17.011719 121.839844 17.574219 125.8125 17.527344 129.777344 C 17.496094 132.472656 16.902344 135.164062 16.460938 138.628906 C 16.585938 138.46875 15.675781 139.089844 15.636719 139.757812 C 15.433594 143.429688 15.546875 147.125 15.3125 150.792969 C 15.238281 151.914062 14.394531 152.980469 13.90625 154.070312 L 13.980469 154.109375 C 13.671875 152.933594 13.363281 151.761719 13.054688 150.585938 C 13.21875 150.585938 13.378906 150.585938 13.308594 150.585938 C 13.386719 150.605469 13.242188 150.574219 13.097656 150.539062 C 12.972656 144.332031 12.863281 138.121094 12.726562 131.910156 C 12.585938 125.402344 12.417969 118.890625 12.265625 112.382812 C 12.261719 112.265625 12.195312 112.132812 12.238281 112.046875 C 14.523438 107.355469 11.300781 102.320312 13.277344 97.460938 C 14.171875 95.257812 13.527344 92.433594 13.570312 89.890625 C 13.605469 89.855469 13.644531 89.820312 13.683594 89.785156 C 13.625 89.820312 13.5625 89.851562 13.5 89.886719 C 13.246094 89.128906 12.757812 88.359375 12.785156 87.609375 C 12.878906 85.207031 13.179688 82.816406 13.355469 80.414062 C 13.441406 79.253906 13.421875 78.085938 13.445312 76.921875 L 13.402344 76.949219 C 13.65625 76.816406 13.914062 76.6875 14.167969 76.554688 C 13.910156 76.421875 13.652344 76.292969 13.390625 76.164062 L 13.457031 76.1875 " fill-opacity="1" fill-rule="nonzero"/><g clip-path="url(#247ebef751)"><path fill="#00ffff" d="M 14.9375 21.171875 L 15.101562 21.269531 L 15.113281 21.105469 Z M 15.082031 67.25 C 15.054688 67.335938 15.007812 67.421875 15.015625 67.503906 C 15.019531 67.535156 15.140625 67.554688 15.207031 67.582031 C 15.230469 67.5 15.277344 67.414062 15.269531 67.332031 C 15.265625 67.296875 15.144531 67.277344 15.082031 67.25 Z M 13.289062 73.59375 C 13.539062 71.894531 15.027344 70.394531 13.074219 68.441406 C 12.25 67.617188 12.941406 65.203125 13.0625 63.523438 C 13.300781 60.230469 13.734375 56.949219 13.878906 53.65625 C 14.066406 49.578125 14.015625 45.492188 14.117188 41.410156 C 14.175781 39.007812 14.332031 36.609375 14.441406 34.203125 C 14.378906 33.992188 14.316406 33.792969 14.25 33.585938 C 14.3125 33.804688 14.367188 34.019531 14.429688 34.238281 C 14.222656 31.710938 13.894531 29.1875 13.835938 26.660156 C 13.71875 21.875 13.890625 17.085938 13.675781 12.308594 C 13.570312 9.90625 13.515625 7.855469 15.886719 6.378906 C 16.503906 5.996094 16.535156 4.6875 17.253906 3.84375 C 16.355469 14.988281 19.445312 26.207031 16.167969 37.261719 L 16.109375 37.199219 C 16.527344 39.792969 16.972656 42.382812 17.351562 44.980469 C 17.59375 46.636719 17.742188 48.304688 17.957031 50.179688 C 17.464844 50.367188 16.804688 50.613281 16.144531 50.863281 L 16.183594 50.847656 C 16.113281 50.929688 15.972656 51.019531 15.984375 51.089844 C 16.015625 51.28125 16.109375 51.46875 16.179688 51.660156 L 16.132812 51.644531 C 16.574219 52.363281 17.019531 53.082031 17.0625 53.148438 C 15.007812 59.136719 16.335938 64.664062 16.933594 70.160156 L 16.859375 70.097656 C 16.402344 71.21875 15.945312 72.34375 15.488281 73.46875 C 15.488281 73.46875 15.4375 73.558594 15.4375 73.554688 C 15.203125 73.761719 14.96875 73.972656 14.734375 74.183594 L 14.800781 74.113281 C 14.273438 73.910156 13.742188 73.707031 13.214844 73.507812 L 13.289062 73.59375 " fill-opacity="1" fill-rule="nonzero"/></g><path fill="#00ffff" d="M 15.167969 333.101562 C 15.015625 328.519531 14.84375 323.941406 14.71875 319.359375 C 14.664062 317.457031 14.707031 315.546875 15.324219 313.613281 C 15.824219 315.648438 18.628906 317.054688 16.5625 319.746094 C 16.03125 320.4375 17.390625 322.398438 17.515625 323.808594 C 18.050781 329.976562 18.378906 336.164062 18.921875 342.332031 C 19.414062 347.949219 20.15625 353.546875 20.636719 359.164062 C 20.789062 360.9375 20.472656 362.753906 20.367188 364.554688 C 19.84375 364.652344 19.316406 364.753906 18.792969 364.851562 C 18.089844 363.117188 16.917969 361.425781 16.773438 359.644531 C 16.363281 354.675781 16.34375 349.675781 16.257812 344.683594 C 16.226562 342.953125 17.21875 340.414062 16.40625 339.636719 C 14.191406 337.511719 17.238281 334.855469 15.179688 333.050781 L 15.167969 333.101562 " fill-opacity="1" fill-rule="nonzero"/><path fill="#00ffff" d="M 13.90625 154.070312 C 14.726562 156.492188 15.546875 158.914062 16.363281 161.332031 C 16.085938 161.5 15.8125 161.667969 15.535156 161.835938 C 14.648438 161.097656 13.769531 160.359375 12.863281 159.601562 C 13.242188 157.746094 13.617188 155.929688 13.984375 154.113281 C 13.980469 154.109375 13.90625 154.070312 13.90625 154.070312 " fill-opacity="1" fill-rule="nonzero"/><path fill="#00ffff" d="M 19.890625 265.976562 C 19.808594 267.101562 19.730469 268.222656 19.648438 269.34375 C 19.457031 269.335938 19.265625 269.332031 19.074219 269.324219 C 19.074219 268.195312 19.074219 267.066406 19.074219 265.933594 C 19.347656 265.949219 19.617188 265.960938 19.890625 265.976562 " fill-opacity="1" fill-rule="nonzero"/><path fill="#00ffff" d="M 14.707031 169.246094 C 11.34375 168.449219 15.914062 167.035156 15.140625 166.191406 C 14.976562 167.230469 14.8125 168.265625 14.644531 169.304688 L 14.707031 169.246094 " fill-opacity="1" fill-rule="nonzero"/><path fill="#00ffff" d="M 15.472656 366.195312 C 15.859375 365.492188 16.246094 364.792969 16.628906 364.089844 C 16.855469 364.277344 17.082031 364.46875 17.308594 364.660156 C 16.699219 365.175781 16.085938 365.6875 15.476562 366.199219 L 15.472656 366.195312 " fill-opacity="1" fill-rule="nonzero"/><path fill="#00ffff" d="M 17.277344 309.761719 C 17.277344 310.042969 17.277344 310.324219 17.277344 310.601562 C 17.21875 310.601562 17.160156 310.601562 17.101562 310.601562 C 17.101562 310.324219 17.101562 310.042969 17.101562 309.761719 C 17.160156 309.761719 17.21875 309.761719 17.277344 309.761719 " fill-opacity="1" fill-rule="nonzero"/><path fill="#00ffff" d="M 17.074219 140.8125 C 16.773438 140.480469 16.476562 140.148438 16.175781 139.8125 C 16.367188 139.707031 16.5625 139.601562 16.753906 139.496094 C 16.855469 139.957031 16.957031 140.417969 17.0625 140.878906 L 17.074219 140.8125 " fill-opacity="1" fill-rule="nonzero"/><path fill="#00ffff" d="M 19.4375 277.832031 C 19.4375 278.425781 19.4375 279.019531 19.4375 279.613281 C 19.328125 279.617188 19.21875 279.617188 19.109375 279.617188 C 19.109375 279.023438 19.109375 278.429688 19.109375 277.835938 C 19.21875 277.832031 19.328125 277.832031 19.4375 277.832031 " fill-opacity="1" fill-rule="nonzero"/><path fill="#00ffff" d="M 14.089844 163.0625 C 14.457031 163.0625 14.824219 163.0625 15.191406 163.0625 C 15.007812 163.292969 14.855469 163.570312 14.617188 163.726562 C 14.511719 163.792969 14.246094 163.617188 14.050781 163.550781 C 14.0625 163.390625 14.074219 163.226562 14.089844 163.0625 " fill-opacity="1" fill-rule="nonzero"/><path fill="#00ffff" d="M 17.0625 140.878906 C 17.195312 141.734375 17.324219 142.597656 17.457031 143.453125 C 17.277344 143.464844 17.097656 143.472656 16.917969 143.484375 C 16.964844 142.601562 17.015625 141.71875 17.066406 140.824219 C 17.074219 140.8125 17.0625 140.878906 17.0625 140.878906 " fill-opacity="1" fill-rule="nonzero"/><path fill="#00ffff" d="M 18.898438 297.929688 C 19.035156 297.535156 19.171875 297.136719 19.308594 296.742188 C 19.402344 297.117188 19.496094 297.492188 19.585938 297.867188 C 19.359375 297.886719 19.128906 297.910156 18.898438 297.929688 " fill-opacity="1" fill-rule="nonzero"/><path fill="#00ffff" d="M 19.398438 300.128906 C 19.457031 300.566406 19.511719 301.007812 19.566406 301.449219 C 19.410156 301.46875 19.253906 301.488281 19.097656 301.507812 C 19.035156 301.070312 18.972656 300.632812 18.910156 300.195312 C 19.074219 300.171875 19.238281 300.152344 19.398438 300.128906 " fill-opacity="1" fill-rule="nonzero"/><path fill="#00ffff" d="M 18.441406 26.304688 C 18.507812 26.300781 18.570312 26.296875 18.632812 26.292969 C 18.574219 26.394531 18.519531 26.492188 18.460938 26.589844 C 18.453125 26.496094 18.449219 26.402344 18.441406 26.304688 " fill-opacity="1" fill-rule="nonzero"/><path fill="#00ffff" d="M 18.867188 256.664062 C 19.101562 256.511719 19.3125 256.332031 19.5625 256.234375 C 19.617188 256.210938 19.902344 256.566406 19.882812 256.589844 C 19.695312 256.832031 19.464844 257.042969 19.246094 257.261719 C 19.144531 257.101562 19.042969 256.941406 18.867188 256.664062 " fill-opacity="1" fill-rule="nonzero"/><g clip-path="url(#de45fe2cc5)"><path fill="#00ffff" d="M 14.292969 367.769531 C 14.078125 367.835938 13.863281 367.902344 14.164062 367.8125 C 13.878906 367.75 14.125 367.800781 14.363281 367.847656 C 14.359375 367.839844 14.292969 367.769531 14.292969 367.769531 " fill-opacity="1" fill-rule="nonzero"/></g><g clip-path="url(#ebc544f5e2)"><path fill="#00ffff" d="M 23.179688 327.277344 C 23.210938 327.195312 23.242188 327.113281 23.277344 327.03125 C 23.355469 327.144531 23.433594 327.261719 23.511719 327.375 C 23.445312 327.421875 23.378906 327.464844 23.308594 327.511719 C 23.265625 327.433594 23.222656 327.355469 23.179688 327.277344 " fill-opacity="1" fill-rule="nonzero"/></g><path fill="#00ffff" d="M 17.292969 314.816406 L 17.066406 314.828125 L 17.160156 314.546875 Z M 17.292969 314.816406 " fill-opacity="1" fill-rule="nonzero"/><path fill="#00ffff" d="M 16.933594 70.160156 C 16.925781 69.960938 16.921875 69.765625 16.917969 69.570312 C 17.035156 69.613281 17.152344 69.660156 17.269531 69.703125 C 17.132812 69.835938 16.996094 69.964844 16.855469 70.09375 C 16.859375 70.097656 16.933594 70.160156 16.933594 70.160156 " fill-opacity="1" fill-rule="nonzero"/><path fill="#00ffff" d="M 19.054688 258.925781 C 19.132812 258.757812 19.210938 258.589844 19.289062 258.425781 C 19.355469 258.503906 19.488281 258.597656 19.476562 258.65625 C 19.429688 258.835938 19.324219 259 19.246094 259.171875 C 19.179688 259.089844 19.117188 259.007812 19.054688 258.925781 " fill-opacity="1" fill-rule="nonzero"/><path fill="#00ffff" d="M 13.042969 162.296875 C 12.988281 162.21875 12.9375 162.136719 12.882812 162.058594 C 13.023438 161.972656 13.15625 161.875 13.304688 161.8125 C 13.332031 161.800781 13.421875 161.945312 13.484375 162.019531 C 13.335938 162.113281 13.191406 162.207031 13.042969 162.296875 " fill-opacity="1" fill-rule="nonzero"/><g clip-path="url(#6b0dd041b4)"><path fill="#00ffff" d="M 14.742188 366.839844 C 14.589844 367.144531 14.433594 367.449219 14.285156 367.761719 C 14.292969 367.769531 14.359375 367.839844 14.363281 367.847656 C 14.523438 367.542969 14.671875 367.230469 14.824219 366.917969 C 14.824219 366.917969 14.742188 366.839844 14.742188 366.839844 " fill-opacity="1" fill-rule="nonzero"/></g><path fill="#00ffff" d="M 15.476562 366.199219 C 15.234375 366.414062 14.988281 366.625 14.746094 366.839844 C 14.742188 366.839844 14.824219 366.917969 14.824219 366.917969 C 15.039062 366.675781 15.257812 366.4375 15.472656 366.195312 L 15.476562 366.199219 " fill-opacity="1" fill-rule="nonzero"/><path fill="#00ffff" d="M 15.179688 333.050781 L 15.320312 333.273438 C 15.320312 333.273438 15.179688 333.121094 15.171875 333.109375 C 15.167969 333.101562 15.179688 333.050781 15.179688 333.050781 " fill-opacity="1" fill-rule="nonzero"/><path fill="#00ffff" d="M 17.648438 288.425781 L 17.574219 288.246094 C 17.574219 288.246094 17.597656 288.335938 17.605469 288.34375 C 17.613281 288.351562 17.648438 288.425781 17.648438 288.425781 " fill-opacity="1" fill-rule="nonzero"/><path fill="#00ffff" d="M 13.445312 76.921875 C 13.410156 76.757812 13.355469 76.597656 13.34375 76.429688 C 13.339844 76.351562 13.417969 76.269531 13.457031 76.1875 C 13.457031 76.1875 13.390625 76.164062 13.390625 76.164062 C 13.394531 76.425781 13.398438 76.6875 13.402344 76.949219 L 13.445312 76.921875 " fill-opacity="1" fill-rule="nonzero"/><path fill="#00ffff" d="M 13.214844 73.507812 C 13.265625 73.496094 13.316406 73.484375 13.367188 73.476562 C 13.34375 73.519531 13.324219 73.558594 13.296875 73.597656 C 13.289062 73.59375 13.214844 73.507812 13.214844 73.507812 " fill-opacity="1" fill-rule="nonzero"/><path fill="#00ffff" d="M 17.828125 55.136719 C 17.890625 55.175781 17.953125 55.210938 18.015625 55.246094 C 17.945312 55.347656 17.875 55.441406 17.804688 55.539062 C 17.746094 55.46875 17.628906 55.394531 17.632812 55.328125 C 17.636719 55.261719 17.757812 55.199219 17.828125 55.136719 " fill-opacity="1" fill-rule="nonzero"/><path fill="#00ffff" d="M 14.644531 169.304688 C 14.964844 169.460938 15.289062 169.621094 15.605469 169.785156 C 15.597656 169.789062 15.671875 169.710938 15.671875 169.710938 C 15.351562 169.554688 15.035156 169.398438 14.710938 169.242188 C 14.707031 169.246094 14.644531 169.304688 14.644531 169.304688 " fill-opacity="1" fill-rule="nonzero"/><path fill="#00ffff" d="M 15.800781 170.902344 C 15.753906 170.507812 15.710938 170.117188 15.667969 169.714844 C 15.671875 169.710938 15.597656 169.789062 15.605469 169.785156 C 15.644531 170.125 15.683594 170.476562 15.730469 170.832031 C 15.742188 170.84375 15.800781 170.902344 15.800781 170.902344 " fill-opacity="1" fill-rule="nonzero"/><path fill="#00ffff" d="M 16.144531 50.863281 C 16.136719 51.121094 16.132812 51.382812 16.128906 51.644531 C 16.132812 51.644531 16.179688 51.660156 16.179688 51.660156 C 16.179688 51.386719 16.183594 51.117188 16.183594 50.847656 L 16.144531 50.863281 " fill-opacity="1" fill-rule="nonzero"/><path fill="#00ffff" d="M 16.167969 37.261719 C 16.195312 37.171875 16.207031 37.066406 16.261719 36.996094 C 16.289062 36.957031 16.394531 36.980469 16.464844 36.972656 C 16.34375 37.046875 16.230469 37.125 16.109375 37.199219 C 16.109375 37.199219 16.167969 37.261719 16.167969 37.261719 " fill-opacity="1" fill-rule="nonzero"/><path fill="#00ffff" d="M 13.359375 199.347656 C 13.40625 199.1875 13.46875 199.03125 13.496094 198.863281 C 13.507812 198.78125 13.453125 198.6875 13.421875 198.601562 C 13.421875 198.601562 13.398438 198.582031 13.398438 198.582031 C 13.394531 198.847656 13.390625 199.109375 13.386719 199.375 L 13.359375 199.347656 " fill-opacity="1" fill-rule="nonzero"/><path fill="#00ffff" d="M 19.222656 225.4375 C 19.289062 225.507812 19.355469 225.582031 19.425781 225.65625 C 19.347656 225.722656 19.269531 225.84375 19.199219 225.835938 C 19.125 225.832031 19.0625 225.703125 18.992188 225.628906 C 19.070312 225.566406 19.144531 225.5 19.222656 225.4375 " fill-opacity="1" fill-rule="nonzero"/></svg>