<svg xmlns="http://www.w3.org/2000/svg" xmlns:xlink="http://www.w3.org/1999/xlink" width="500" zoomAndPan="magnify" viewBox="0 0 375 374.999991" height="500" preserveAspectRatio="xMidYMid meet" version="1.0"><defs><clipPath id="a3c3054e69"><path d="M 60.964844 3.113281 L 313.714844 3.113281 L 313.714844 366 L 60.964844 366 Z M 60.964844 3.113281 " clip-rule="nonzero"/></clipPath></defs><g clip-path="url(#a3c3054e69)"><path fill="#ffffff" d="M 187.5 3.230469 C 257.382812 3.230469 314.035156 59.882812 314.035156 129.769531 C 314.035156 154.082031 307.171875 176.789062 295.28125 196.074219 C 281.023438 219.695312 266.761719 243.320312 252.5 266.945312 C 235.132812 295.175781 221.082031 318.019531 203.714844 346.253906 C 188.402344 371.144531 187.367188 371.757812 171.976562 346.734375 C 154.699219 318.644531 140.171875 295.03125 122.890625 266.945312 C 108.664062 243.585938 94.441406 220.226562 80.210938 196.871094 C 68.023438 177.417969 60.964844 154.417969 60.964844 129.769531 C 60.964844 59.882812 117.617188 3.230469 187.5 3.230469 Z M 187.5 66.671875 C 218.828125 66.671875 244.226562 92.070312 244.226562 123.398438 C 244.226562 154.726562 218.828125 180.121094 187.5 180.121094 C 156.167969 180.121094 130.773438 154.726562 130.773438 123.398438 C 130.773438 92.070312 156.171875 66.671875 187.5 66.671875 Z M 187.5 66.671875 " fill-opacity="1" fill-rule="evenodd"/></g></svg>