<svg xmlns="http://www.w3.org/2000/svg" xmlns:xlink="http://www.w3.org/1999/xlink" width="500" zoomAndPan="magnify" viewBox="0 0 375 101.999999" height="136" preserveAspectRatio="xMidYMid meet" version="1.0"><defs><clipPath id="616d6a24a0"><path d="M 1.058594 4 L 373.808594 4 L 373.808594 76 L 1.058594 76 Z M 1.058594 4 " clip-rule="nonzero"/></clipPath><clipPath id="feef8ec0e1"><path d="M 139 97 L 145 97 L 145 101.640625 L 139 101.640625 Z M 139 97 " clip-rule="nonzero"/></clipPath></defs><g clip-path="url(#616d6a24a0)"><path fill="#00ffff" d="M 119.320312 59.429688 C 119.121094 60.300781 118.921875 61.171875 118.695312 62.160156 C 120.910156 63.429688 121.011719 62.496094 122.535156 61.09375 C 123.796875 61.261719 124.644531 60.324219 125.714844 60.042969 C 128.179688 59.746094 126.714844 62.246094 125.636719 63.195312 C 125.898438 63.695312 126.15625 64.179688 126.421875 64.683594 C 127.761719 64.277344 129.042969 63.882812 130.519531 63.433594 C 129.515625 58.882812 133.246094 64.117188 134.367188 61.140625 C 134.410156 60.832031 133.980469 60.144531 133.796875 60.15625 C 131.894531 60.304688 131.9375 58.417969 130.84375 57.433594 C 130.234375 57.632812 129.523438 57.863281 128.589844 58.167969 C 127.902344 56.882812 125.882812 56.515625 126.269531 54.257812 C 125.011719 54.71875 123.753906 53.792969 122.914062 55.140625 C 122.167969 54.277344 121.59375 53.609375 120.863281 52.765625 C 121.105469 51.988281 121.398438 51.050781 121.738281 49.957031 C 120.59375 49.398438 119.542969 49.660156 118.167969 49.925781 C 121.25 53.753906 115.023438 54.203125 116.4375 49.886719 C 115.917969 49.804688 115.382812 49.722656 114.902344 49.648438 C 113.65625 52.027344 115.699219 52.992188 112.1875 53.4375 C 109.5625 54.710938 107.296875 53.847656 104.917969 52.539062 C 102.945312 52.613281 103.761719 55.886719 105.503906 56.101562 C 106.328125 56.261719 107.117188 56.617188 107.992188 56.90625 C 107.527344 58.171875 106.664062 57.113281 106.042969 57.339844 C 105.457031 57.558594 104.726562 57.386719 104.042969 57.386719 C 103.632812 57.972656 103.253906 58.515625 102.878906 59.050781 C 103.484375 61.40625 103.484375 61.40625 101.976562 63.691406 C 102.308594 64.328125 102.65625 65 102.949219 65.5625 C 102.550781 66.570312 99.878906 67.109375 97.246094 66.800781 C 96.601562 68.296875 94.394531 68.296875 93.722656 70.214844 C 94.648438 71.152344 95.574219 72.089844 96.359375 72.890625 C 96.503906 77.628906 89.140625 76.371094 91.351562 71.199219 C 87.976562 68.878906 92.496094 67.566406 92.617188 64.972656 C 91.316406 64.421875 89.625 63.925781 90.667969 62.464844 C 91.132812 61.695312 91.460938 60.96875 91.011719 60.265625 C 90.386719 59.285156 91.234375 58.542969 91.21875 57.667969 C 91.210938 57.074219 91.691406 56.46875 92.007812 55.75 C 94.621094 57.070312 91.640625 58.265625 93.21875 59.71875 C 95.660156 61.730469 91.949219 61.992188 92.796875 64.132812 C 94.628906 63.8125 96.109375 64.34375 97.597656 65.597656 C 98.5 64.671875 99.3125 63.949219 100.472656 63.195312 C 99.957031 62.742188 99.542969 62.382812 99.097656 61.996094 C 99.367188 60.710938 99.644531 59.402344 99.972656 57.851562 C 99.109375 57.558594 98.222656 57.421875 97.484375 56.886719 C 97.789062 56.332031 98.617188 57.128906 99.21875 57.007812 C 99.753906 55.59375 100.292969 54.164062 100.921875 52.507812 C 100.78125 52.351562 100.234375 52.003906 100.257812 51.707031 C 100.453125 49.421875 98.027344 49.945312 97.21875 48.773438 C 94.855469 48.648438 92.492188 48.226562 89.945312 48.703125 C 90.695312 51.851562 89.199219 51.554688 87.175781 52.25 C 86.59375 53.394531 85.539062 52.5 85.035156 53.246094 C 85.035156 53.246094 85.070312 53.269531 85.070312 53.269531 C 85.941406 53.105469 85.492188 51.6875 85.9375 51.328125 C 87.648438 51.277344 87.6875 49.609375 88.589844 48.800781 C 60.515625 46.96875 31.332031 50.035156 2.925781 50.644531 C 2.28125 49.566406 1.703125 48.605469 1.066406 47.550781 C 2.421875 44.679688 5.195312 43.339844 7.464844 41.203125 C 7.214844 39.976562 6.742188 37.929688 8.445312 37.554688 C 11.886719 36.046875 14.636719 33.417969 18.0625 31.8125 C 20.574219 30.671875 22.683594 28.886719 24.761719 27.191406 C 27.546875 27.109375 28.492188 24.503906 30.589844 23.296875 C 32.566406 23.109375 34.636719 27.355469 35.496094 25.769531 L 35.460938 25.734375 C 32.558594 27.941406 50.703125 28.117188 52.371094 28.5625 C 52.984375 26.664062 54.304688 26.613281 54.445312 28.71875 C 67.070312 30.773438 79.679688 30.878906 92.429688 30.464844 C 94.921875 30.414062 97.402344 30.578125 99.847656 29.554688 C 102.089844 28.46875 105.558594 30.464844 107.199219 27.9375 C 108.050781 26.511719 109.777344 27.957031 110.730469 28.679688 C 113.050781 27.421875 112.195312 25.71875 114.734375 28.285156 C 115.632812 28.417969 115.628906 27.675781 115.964844 27.277344 C 116.878906 26.039062 117.679688 27.566406 118.527344 28.214844 C 119.671875 28.011719 121.050781 28.285156 122.277344 27.4375 C 122.519531 27.269531 122.996094 27.148438 123.207031 27.273438 C 129.050781 28.832031 134.992188 27.285156 141.113281 27.429688 C 140.640625 26.078125 140.464844 25.328125 140.382812 24.03125 C 139.210938 23.484375 138.410156 24.074219 137.523438 24.621094 C 133.886719 25.894531 134.480469 21.191406 138.578125 20.714844 C 140.285156 21.1875 140.203125 22.628906 140.292969 23.890625 C 141.527344 24.394531 143.226562 24.386719 143.898438 25.554688 C 144.699219 29.230469 153.871094 27.363281 156.324219 26.46875 C 161.820312 27.992188 167.851562 27.003906 173.585938 27.566406 C 174.710938 27.613281 175.867188 27.746094 176.824219 26.816406 C 177.027344 26.613281 177.648438 26.75 178.042969 26.851562 C 181.992188 28.105469 183.796875 24.074219 183.375 20.792969 C 185.796875 19.980469 188.109375 20.636719 190.542969 20.867188 C 190.832031 20.222656 191.136719 19.539062 191.507812 18.710938 C 192.773438 19.03125 193.949219 19.332031 195.46875 19.714844 C 195.738281 18.96875 196.535156 18.082031 197.070312 19.167969 C 197.277344 20.34375 196.398438 21.613281 197.558594 22.808594 C 198.105469 23.042969 198.289062 22.429688 198.695312 22.054688 C 200.765625 19.917969 201.699219 23.222656 203.691406 23.085938 C 205.980469 24.117188 204.96875 25.476562 207.9375 23.597656 C 209.046875 24.445312 210.015625 25.0625 210.351562 26.402344 C 210.828125 27.632812 209.363281 28.21875 208.59375 27.269531 C 207.765625 25.957031 207.761719 24.46875 205.894531 23.882812 C 205.894531 25.753906 205.894531 26.929688 205.894531 28.738281 C 210.042969 29.402344 214.105469 28.804688 218.324219 28.980469 C 218.527344 28.421875 218.746094 27.820312 218.964844 27.214844 C 218.136719 26.640625 217.527344 27.496094 216.757812 27.394531 C 215.902344 27.242188 215.09375 26.835938 214.183594 26.503906 C 214.152344 25.054688 215.121094 24.191406 215.839844 23.0625 C 216.960938 23.726562 218.015625 24.351562 219.253906 25.089844 C 219.796875 24.234375 220.125 23.570312 220.449219 22.703125 C 222.335938 21.894531 225.800781 22.609375 226.445312 20.433594 C 224.882812 18.359375 221.738281 21.300781 220.660156 16.351562 C 218.820312 17.179688 218.464844 20.382812 218.183594 22.320312 C 217.480469 22.277344 216.644531 22.230469 215.566406 22.167969 C 215.730469 20.945312 215.859375 19.992188 215.988281 19.042969 C 214.746094 17.46875 213.542969 20.667969 211.863281 18.785156 C 210.980469 18.339844 209.59375 17.011719 208.828125 18.207031 L 208.878906 18.25 C 209.777344 17.566406 209.25 16.777344 209.074219 15.824219 C 210.121094 15.097656 211.105469 14.417969 212.097656 13.730469 C 213.078125 14.039062 212.449219 14.910156 212.800781 15.683594 C 213.5625 16.210938 214.484375 16.847656 215.535156 17.574219 C 217.128906 15.863281 218.320312 15.417969 220.730469 16.367188 C 223.429688 12.058594 224.4375 15.105469 228.027344 14.886719 C 226.640625 17.910156 227.375 18.789062 228.820312 21.511719 C 235.40625 18.917969 230.667969 25.117188 234.546875 24.769531 C 238.058594 22.214844 235.882812 29.667969 240.613281 27.386719 C 242.519531 26.699219 242.578125 26.621094 243.222656 23.890625 C 241.035156 21.476562 240.117188 21.492188 238.679688 24.667969 C 237.605469 22.757812 236.964844 21.738281 235 21.117188 C 235.597656 18.695312 235.597656 18.695312 237.066406 17.59375 C 236.613281 16.042969 236.15625 14.492188 235.699219 12.933594 C 235.003906 12.96875 234.429688 13.121094 233.921875 12.996094 C 232.371094 12.359375 232.007812 15.1875 230.453125 13.878906 C 229.925781 13.503906 229.945312 12.503906 230.683594 12.191406 C 232.085938 11.597656 231.785156 10.390625 232.171875 9.207031 C 230.777344 8.847656 229.207031 9.277344 227.933594 7.929688 C 228.210938 6.917969 228.527344 5.753906 228.835938 4.605469 C 232.089844 2.867188 232.488281 6.988281 232.203125 9.253906 C 233.109375 10.652344 235.113281 10.792969 235.96875 12.328125 C 237.886719 12.535156 238.027344 14.414062 238.433594 15.875 C 238.050781 16.378906 237.667969 16.882812 237.242188 17.449219 C 238.125 18.171875 238.714844 19.179688 240.160156 18.5625 C 241.726562 17.710938 242.285156 20.175781 243.621094 19.992188 C 244.3125 19.507812 244.269531 18.703125 244.09375 18.003906 C 244.59375 17.296875 245.699219 17.914062 245.152344 18.738281 C 243.566406 19.875 245.542969 21.117188 245.316406 22.882812 C 249.234375 22.917969 253.179688 22.9375 255.183594 27.121094 C 263.925781 27.121094 272.726562 27.121094 281.566406 27.121094 C 282.226562 25.746094 280.160156 26.710938 280.355469 25.199219 C 280.597656 24.144531 280.96875 22.53125 281.367188 20.785156 C 285.980469 19.074219 286.496094 23.921875 285.605469 27.363281 C 288.085938 27.4375 290.484375 27.402344 292.859375 27.609375 C 294.289062 27.734375 294.648438 26.265625 295.902344 26.015625 C 297.429688 27.480469 299.292969 27.953125 301.402344 27.5625 C 305.351562 26.660156 321.75 28.578125 322.421875 24.953125 C 324.671875 26.539062 324.671875 26.5 327.078125 26.421875 C 336.921875 26.105469 346.769531 25.804688 356.617188 25.523438 C 360.625 26.242188 373.191406 22.789062 373.660156 27.972656 C 373.90625 32.753906 367.027344 32.890625 364.109375 35.410156 C 359.921875 37.351562 356.148438 40.132812 351.203125 40.203125 C 339.40625 46.640625 326.832031 42.664062 313.9375 44.121094 C 313.042969 44.183594 311.945312 45 311.089844 44.839844 C 307.019531 43.214844 302.78125 43.652344 298.496094 44.132812 C 298.394531 45.949219 297.148438 46.0625 296.589844 44.414062 C 291.066406 44.359375 285.703125 45.023438 283.121094 46.082031 C 283.300781 46.667969 283.476562 47.257812 283.828125 48.417969 C 282.835938 47.757812 282.320312 47.417969 281.664062 46.976562 C 278.765625 50.097656 273.996094 48.050781 270.257812 48.566406 C 260.308594 48.839844 250.257812 48.089844 240.09375 48.765625 C 239.503906 49.894531 239.65625 52.058594 238.355469 51.453125 C 237.320312 51.023438 236.65625 52.085938 235.597656 51.507812 C 235.921875 50.652344 237.296875 50.714844 237.113281 49.839844 C 236.335938 48.59375 234.621094 49.222656 233.324219 49.09375 C 232.671875 50.269531 232.261719 51.550781 230.953125 52.324219 C 230.003906 52.597656 230.199219 56.058594 228.703125 54.761719 C 229.929688 53.011719 230.441406 51.585938 230.3125 49.300781 C 222.667969 49.195312 215.128906 49.546875 207.378906 50.167969 C 206.359375 52.378906 205.132812 54.480469 202.191406 53.828125 C 201.707031 54.835938 201.296875 55.6875 200.882812 56.542969 C 199.035156 55.667969 200.316406 54.507812 200.34375 53.570312 C 199.453125 52.394531 197.585938 52.222656 197.46875 50.191406 C 196.414062 50.738281 195.433594 51.085938 194.5625 51.601562 C 194.335938 53.320312 193.25 54.902344 194.054688 56.613281 C 193.613281 57.054688 193.136719 57.539062 192.714844 57.964844 C 189.121094 56.730469 192.316406 55.746094 191.496094 54.335938 C 190.480469 53.851562 190.546875 52.070312 189.097656 52.351562 C 188.0625 52.554688 187.230469 52.585938 186.523438 51.636719 C 185.652344 50.519531 184.078125 52.183594 185.089844 53.15625 C 186.402344 54.851562 186.386719 54.863281 186.0625 57.097656 C 185.441406 57.320312 184.8125 57.546875 184.082031 57.8125 C 184.261719 61.976562 182.117188 63.011719 181.761719 58.1875 C 180.929688 58.300781 180.304688 58.386719 179.5 58.496094 C 178.429688 56.535156 181.621094 54.746094 180.203125 53.023438 C 177.960938 52.605469 179.738281 50.84375 178.542969 49.886719 C 176.734375 49.65625 174.734375 49.484375 172.59375 49.667969 C 172.585938 51.460938 174.238281 52.832031 173.464844 54.765625 C 171.996094 55.1875 171.0625 54.089844 169.960938 53.320312 C 168.53125 53.386719 167.0625 53.457031 165.429688 53.535156 C 164.679688 52.0625 163.242188 50.996094 163.449219 48.929688 C 155.902344 47.460938 156.136719 49.203125 150.863281 53.800781 C 153.050781 56.839844 155.152344 53.289062 157.277344 55.59375 C 158.050781 56.914062 160.367188 56.667969 160.171875 58.300781 C 159.539062 58.652344 158.546875 58.523438 158.445312 59.738281 C 160.609375 64.144531 161.816406 58.261719 162.503906 56.148438 C 163.445312 56.09375 164.222656 56.046875 164.929688 56.007812 C 165.175781 56.207031 165.445312 56.3125 165.492188 56.484375 C 165.960938 58.097656 167.371094 58.425781 168.691406 58.886719 C 170.460938 58.15625 171.441406 59.410156 172.429688 60.480469 C 173.417969 60.460938 174.863281 59.441406 174.90625 61.046875 C 174.914062 61.484375 174.71875 61.90625 175.261719 62.214844 C 175.972656 62.734375 175.238281 63.945312 174.460938 63.199219 C 173.675781 62.476562 172.878906 63.941406 171.972656 63.140625 C 171.179688 62.613281 169.933594 61.808594 168.941406 61.9375 C 166.917969 64.042969 163.527344 59.933594 162.539062 63.09375 C 162.398438 63.839844 161.597656 64.457031 161 65.253906 C 160.589844 64.164062 160.238281 63.246094 159.859375 62.246094 C 158.542969 62.316406 157.203125 62.828125 156.292969 61.488281 C 154.789062 61.859375 153.277344 62.238281 151.566406 62.664062 C 151.203125 62.09375 150.808594 61.472656 150.292969 60.671875 C 149.484375 61.183594 148.675781 61.695312 147.859375 62.210938 C 145.449219 60.605469 146.867188 57.40625 146.332031 54.945312 C 146.078125 51.871094 146.960938 51.730469 147.871094 49.160156 C 147.378906 48.226562 146.453125 48.417969 145.820312 48.710938 C 144.074219 49.519531 142.460938 49.179688 140.636719 48.910156 C 137.558594 48.425781 134.363281 49.21875 131.234375 49.230469 C 128.429688 49.199219 125.429688 48.796875 123.046875 50.613281 C 123.242188 51.5625 123.414062 52.398438 123.59375 53.28125 C 125.460938 53.015625 125.90625 52.234375 126.441406 50.53125 C 128.316406 50.121094 129.609375 51.003906 130.738281 52.714844 C 133.21875 51.082031 136.921875 51.886719 138.503906 48.800781 C 141.933594 49.816406 139.09375 53.101562 141.132812 53.753906 C 142.136719 53.964844 141.988281 52.914062 142.398438 52.46875 C 144.816406 51.015625 144.542969 54.222656 141.546875 54.382812 C 142.457031 56.167969 141.8125 57.8125 142.691406 59.363281 C 143.242188 61.539062 145.257812 60.730469 144.773438 63.699219 C 145.796875 63.980469 146.835938 64.269531 147.898438 64.5625 C 148.304688 65.042969 147.210938 65.898438 148.265625 66.261719 L 148.300781 66.21875 C 144.945312 63.554688 145.410156 68.339844 142.554688 68.375 C 142.390625 68.414062 142.277344 68.691406 142.136719 68.859375 C 142.125 71.046875 145.320312 69.503906 145.566406 72.117188 C 144.4375 73.179688 143.238281 74.308594 141.949219 75.519531 C 138.261719 73.832031 141.054688 71.664062 142.519531 69.699219 C 142.25 68.261719 140.964844 68.273438 140.597656 68.476562 C 139.46875 69.101562 138.421875 68.4375 137.382812 68.546875 C 135.460938 78.152344 129.308594 74.644531 122.425781 74.6875 C 121.800781 73.746094 121.1875 72.828125 120.460938 71.742188 C 120.910156 71.160156 121.503906 70.417969 121.929688 69.976562 C 121.078125 68.90625 122.527344 67.960938 122.085938 66.933594 C 122.601562 66.910156 123.121094 66.886719 123.671875 66.863281 C 123.980469 67.332031 124.292969 67.808594 124.871094 68.679688 C 125.167969 67.390625 125.359375 66.570312 125.574219 65.648438 C 124.582031 65.425781 123.832031 65.253906 122.992188 65.066406 C 122.671875 65.808594 122.410156 66.40625 122.148438 67.007812 C 119.816406 67.328125 118.378906 69.007812 116.070312 67.589844 C 115.734375 67.988281 115.375 68.40625 114.9375 68.917969 C 114.484375 68.371094 114.035156 67.832031 113.421875 67.09375 C 111.539062 70.175781 110.667969 68.878906 108.480469 67.082031 C 108.597656 66.351562 108.71875 65.585938 108.832031 64.855469 C 108.28125 63.617188 106.289062 64.101562 105.898438 64.621094 C 106.265625 64.765625 108.613281 64.390625 108.855469 63.621094 C 109.113281 62.117188 110.515625 62.820312 111.464844 62.175781 C 110.46875 60.300781 110.054688 57.625 113.097656 58.292969 C 113.574219 58.488281 113.890625 59.167969 114.5625 58.789062 L 114.523438 58.75 C 114.453125 59.953125 115.675781 60.210938 116.117188 61.449219 C 117.164062 59.988281 117.753906 59.550781 119.371094 59.480469 C 119.371094 59.480469 119.320312 59.429688 119.320312 59.429688 Z M 138.957031 57.425781 C 138.246094 59.171875 137.628906 60.691406 136.960938 62.332031 C 137.707031 62.683594 139.332031 63.707031 137.53125 63.796875 C 137.339844 63.199219 137.148438 62.597656 136.9375 61.941406 C 136.1875 61.863281 135.554688 61.796875 134.75 61.710938 C 134.675781 62.902344 134.609375 63.882812 134.546875 64.898438 C 135.300781 65.703125 136.042969 66.488281 136.777344 67.269531 C 137.40625 66.71875 137.898438 66.285156 138.332031 65.90625 C 139.226562 66.277344 140.003906 66.601562 140.785156 66.925781 C 141.332031 65.949219 141.769531 65.171875 142.265625 64.285156 C 141.945312 63.460938 141.136719 62.609375 141.855469 61.523438 C 142.003906 61.300781 141.988281 60.664062 141.882812 60.621094 C 140.515625 60.070312 141.265625 58.71875 140.960938 57.800781 C 140.253906 57.667969 139.703125 57.566406 138.957031 57.425781 Z M 196.542969 28.121094 C 197.566406 25.648438 197.84375 26.167969 200.289062 26.792969 C 200.390625 26.265625 200.46875 25.84375 200.507812 25.644531 C 199.421875 24.816406 198.5 24.109375 197.503906 23.347656 C 193.578125 29.113281 189.4375 20.191406 189.539062 27.691406 C 190.898438 28.460938 191.800781 27.5 192.777344 27.128906 C 194.503906 28.183594 194.503906 28.183594 196.542969 28.121094 Z M 150.964844 54.402344 C 150.65625 52.957031 150.433594 51.9375 150.144531 50.59375 C 146.496094 53.363281 145.015625 55.859375 150.964844 54.402344 Z M 184.367188 27.1875 C 185.410156 27.503906 186.804688 28.515625 187.710938 26.597656 C 186.445312 26.820312 185.40625 27.003906 184.367188 27.1875 Z M 233.058594 24.175781 C 231.550781 23.933594 230.175781 23.902344 228.886719 24.757812 C 229.078125 27.941406 232.210938 25.839844 233.058594 24.175781 Z M 116.882812 65.132812 C 117.210938 64.128906 118.847656 62.476562 117.453125 61.75 C 114.988281 60.910156 113.835938 63.703125 116.882812 65.132812 Z M 180.984375 51.382812 C 182.164062 51.339844 185.960938 52.210938 184.648438 50.296875 C 183.160156 50.363281 181.082031 49.070312 180.984375 51.382812 Z M 223.554688 26.238281 C 226.429688 26.222656 224.605469 23.5625 223.277344 23.980469 C 222.300781 24.503906 223.160156 25.722656 223.554688 26.238281 Z M 99.953125 48.859375 C 98.785156 50.089844 99.996094 50.84375 100.863281 49.582031 C 100.628906 49.398438 100.394531 49.210938 99.953125 48.859375 Z M 111.371094 64.332031 C 111.28125 64.425781 111.203125 64.5 111.128906 64.578125 C 111.398438 64.714844 111.613281 64.9375 111.816406 64.578125 C 111.664062 64.496094 111.515625 64.414062 111.371094 64.332031 Z M 102.289062 50.925781 C 102.378906 51.019531 102.457031 51.09375 102.53125 51.171875 C 102.667969 50.898438 102.890625 50.683594 102.53125 50.484375 C 102.449219 50.632812 102.367188 50.78125 102.289062 50.925781 Z M 102.289062 50.925781 " fill-opacity="1" fill-rule="nonzero"/></g><path fill="#00ffff" d="M 86.179688 66.226562 C 85.644531 65.472656 85.054688 64.640625 84.410156 63.726562 C 83.578125 64.269531 82.957031 64.679688 82.226562 65.160156 C 81.109375 64.269531 79.929688 63.972656 78.492188 64.085938 C 78.226562 63.5625 77.976562 63.070312 77.617188 62.359375 C 73.253906 64.261719 74.191406 58.257812 76.894531 60.671875 C 77.230469 61.453125 77.355469 61.773438 78.242188 62.289062 C 78.960938 61.1875 79.621094 60.175781 80.289062 59.148438 C 80.835938 59.203125 81.378906 59.257812 82.050781 59.328125 C 82.4375 58.851562 82.863281 58.335938 83.238281 57.878906 C 84.769531 58.398438 85.027344 60.386719 86.90625 60.804688 C 89.175781 62.160156 89.375 64.582031 86.179688 66.226562 Z M 86.179688 66.226562 " fill-opacity="1" fill-rule="nonzero"/><path fill="#00ffff" d="M 208.828125 18.207031 C 207.695312 18.332031 208.742188 19.824219 207.617188 20.007812 C 206.511719 20.128906 205.496094 18.96875 204.1875 19.628906 C 202.917969 20.027344 202.699219 18.011719 202.65625 17.164062 C 200.761719 15.542969 198.183594 16.40625 196.3125 14.847656 C 196.792969 13.480469 197.175781 11.917969 197.394531 10.46875 C 199.519531 9.121094 200.789062 11.652344 202.84375 11.398438 C 205.628906 11.8125 206.621094 14.101562 205.328125 16.632812 C 205.953125 18.402344 207.472656 18.195312 208.875 18.246094 C 208.878906 18.25 208.828125 18.207031 208.828125 18.207031 Z M 208.828125 18.207031 " fill-opacity="1" fill-rule="nonzero"/><path fill="#00ffff" d="M 64.828125 57.613281 C 66.1875 56 68.371094 58.027344 66.171875 58.816406 C 63.589844 58.035156 62.523438 62.632812 59.726562 60.042969 C 56.199219 55.574219 61.996094 52.410156 64.828125 57.613281 Z M 64.828125 57.613281 " fill-opacity="1" fill-rule="nonzero"/><path fill="#00ffff" d="M 155.359375 68.714844 C 155.667969 68.003906 155.871094 67.535156 156.164062 66.851562 C 157.160156 67.5 157.871094 67.941406 158.371094 68.851562 C 159.257812 69.210938 159.847656 67.914062 160.648438 68.839844 C 161.425781 69.777344 160.28125 70.183594 159.933594 71.003906 C 164.078125 75.34375 157.445312 76.328125 155.949219 73.746094 C 155.277344 70.074219 159.226562 71.679688 158.816406 69.78125 C 158.261719 68.402344 156.71875 69.070312 155.359375 68.714844 Z M 155.359375 68.714844 " fill-opacity="1" fill-rule="nonzero"/><path fill="#00ffff" d="M 148.265625 66.261719 C 149.082031 67.097656 150.410156 66.980469 151.179688 68.09375 C 151.839844 69.050781 152.363281 70.300781 153.691406 70.722656 C 154.207031 72.042969 152.28125 72.785156 151.421875 73.457031 C 149.683594 73.273438 150.84375 71.429688 149.742188 70.738281 C 149.234375 70.738281 148.597656 70.738281 147.941406 70.738281 C 147.886719 70.585938 147.730469 70.375 147.761719 70.199219 C 148.34375 69.09375 148.324219 67.523438 148.300781 66.222656 C 148.300781 66.21875 148.265625 66.261719 148.265625 66.261719 Z M 148.265625 66.261719 " fill-opacity="1" fill-rule="nonzero"/><path fill="#00ffff" d="M 173.480469 22.292969 C 173.773438 23.320312 172.574219 24.050781 173.292969 24.964844 C 172.621094 26.546875 171.585938 25.53125 171.484375 24.121094 C 170.570312 24.207031 169.828125 24.273438 169.058594 24.34375 C 168.488281 23.210938 169.175781 22.300781 167.875 21.65625 C 165.171875 20.214844 167.605469 18.867188 169.558594 18.3125 C 170.828125 19.988281 169.425781 21.523438 170.835938 22.988281 C 171.082031 24.898438 173.125 24.507812 172.949219 22.644531 C 172.945312 22.59375 173.128906 22.519531 173.480469 22.292969 Z M 173.480469 22.292969 " fill-opacity="1" fill-rule="nonzero"/><path fill="#00ffff" d="M 42.445312 50.488281 C 44.011719 51.925781 44.824219 52.558594 46.535156 53.59375 C 46.046875 54.855469 45.074219 55.566406 44.039062 56.484375 C 43.035156 55.417969 41.855469 54.902344 40.164062 55.472656 C 40.574219 53.421875 41.386719 52.140625 42.445312 50.488281 Z M 42.445312 50.488281 " fill-opacity="1" fill-rule="nonzero"/><path fill="#00ffff" d="M 59.351562 65.78125 C 58.882812 61.898438 64.144531 62.015625 64.371094 64.980469 C 64.578125 67.703125 59.347656 69.308594 59.351562 65.78125 Z M 59.351562 65.78125 " fill-opacity="1" fill-rule="nonzero"/><path fill="#00ffff" d="M 257.757812 18.710938 C 258.472656 19.382812 258.808594 20.292969 260.082031 20.398438 C 260.59375 20.441406 261.015625 21.492188 261.503906 22.121094 C 266.238281 19.570312 265.765625 26.320312 262.160156 24.558594 C 261.511719 23.84375 261.253906 22.804688 259.855469 22.984375 C 257.851562 22.527344 259.96875 19.84375 257.757812 18.710938 Z M 257.757812 18.710938 " fill-opacity="1" fill-rule="nonzero"/><path fill="#00ffff" d="M 195.054688 65.382812 C 194.902344 68.59375 191.121094 69.28125 189.855469 66.210938 C 188.640625 62.824219 194.394531 62.605469 195.054688 65.382812 Z M 195.054688 65.382812 " fill-opacity="1" fill-rule="nonzero"/><path fill="#00ffff" d="M 273.851562 56.75 C 276.050781 59.339844 275.601562 62.652344 271.566406 61.355469 C 268.832031 59.664062 271.425781 56.925781 273.851562 56.75 Z M 273.851562 56.75 " fill-opacity="1" fill-rule="nonzero"/><path fill="#00ffff" d="M 177.335938 20.867188 C 177.507812 18.625 179.410156 17.621094 180.695312 19.550781 C 181.019531 20.992188 183.21875 22.324219 181.472656 23.628906 C 180.914062 24.046875 179.800781 24.070312 179.65625 23.515625 C 179.332031 22.261719 178.085938 21.941406 177.335938 20.867188 Z M 177.335938 20.867188 " fill-opacity="1" fill-rule="nonzero"/><path fill="#00ffff" d="M 63.320312 74.5 C 62.128906 73.429688 61.238281 72.632812 60.210938 71.710938 C 61.476562 69.476562 63.03125 70.691406 64.183594 72.3125 C 65.542969 69.449219 67.785156 71.105469 66.515625 72.097656 C 65.246094 72.355469 64.285156 72.992188 63.320312 74.5 Z M 63.320312 74.5 " fill-opacity="1" fill-rule="nonzero"/><path fill="#00ffff" d="M 240.601562 3.429688 C 247.828125 0.386719 246.308594 7.011719 242.074219 5.644531 C 241.222656 5.261719 240.5625 4.625 240.601562 3.429688 Z M 240.601562 3.429688 " fill-opacity="1" fill-rule="nonzero"/><path fill="#00ffff" d="M 181.628906 64.40625 C 180.699219 64.625 179.976562 64.796875 179.195312 64.980469 C 178.554688 61.992188 185.101562 61.992188 185.3125 64.324219 C 185.125 66.976562 182.605469 66.382812 181.628906 64.40625 Z M 181.628906 64.40625 " fill-opacity="1" fill-rule="nonzero"/><path fill="#00ffff" d="M 188.390625 60.160156 C 190.011719 58.734375 190.011719 58.734375 191.300781 60.015625 C 190.097656 61.179688 188.347656 60.414062 187.527344 62.136719 C 185.175781 64.109375 184.179688 58.28125 188.390625 60.160156 Z M 188.390625 60.160156 " fill-opacity="1" fill-rule="nonzero"/><path fill="#00ffff" d="M 237.851562 58.785156 C 241.136719 58.28125 241.652344 61.960938 239.398438 62.46875 C 236.964844 62.355469 237.394531 60.523438 237.851562 58.785156 Z M 237.851562 58.785156 " fill-opacity="1" fill-rule="nonzero"/><g clip-path="url(#feef8ec0e1)"><path fill="#00ffff" d="M 144.351562 100.210938 C 143.6875 100.980469 143.253906 101.484375 142.785156 102.023438 C 141.695312 101.691406 140.667969 101.375 139.4375 100.996094 C 139.964844 99.953125 140.445312 99 141.042969 97.816406 C 142.171875 98.632812 143.121094 99.320312 144.351562 100.210938 Z M 144.351562 100.210938 " fill-opacity="1" fill-rule="nonzero"/></g><path fill="#00ffff" d="M 75.414062 22.789062 C 75.808594 24.960938 72.027344 26.109375 71.792969 23.648438 C 71.378906 21.082031 75.128906 20.667969 75.414062 22.789062 Z M 75.414062 22.789062 " fill-opacity="1" fill-rule="nonzero"/><path fill="#00ffff" d="M 145.371094 83.578125 C 145.09375 83.800781 143.898438 83.78125 143.886719 82.976562 C 144.113281 81.472656 146.394531 81.929688 147.535156 81.566406 C 148.378906 81.652344 148.246094 83.046875 147.742188 83.324219 C 147.140625 83.539062 146.445312 83.484375 145.371094 83.578125 Z M 145.371094 83.578125 " fill-opacity="1" fill-rule="nonzero"/><path fill="#00ffff" d="M 55.953125 18.683594 C 58.441406 18.597656 57.839844 21.996094 55.71875 21.875 C 53.785156 21.769531 54.332031 18.601562 55.953125 18.683594 Z M 55.953125 18.683594 " fill-opacity="1" fill-rule="nonzero"/><path fill="#00ffff" d="M 198.46875 60.222656 C 197.570312 61.253906 195.226562 61.714844 194.988281 60.015625 C 194.851562 57.664062 198.25 57.898438 198.46875 60.222656 Z M 198.46875 60.222656 " fill-opacity="1" fill-rule="nonzero"/><path fill="#00ffff" d="M 213.433594 7.875 C 214.574219 9.726562 212.382812 11.234375 211.042969 9.820312 C 209.664062 8.082031 212.308594 7.945312 213.433594 7.875 Z M 213.433594 7.875 " fill-opacity="1" fill-rule="nonzero"/><path fill="#00ffff" d="M 254.125 13.476562 C 255.308594 13.476562 256.269531 13.476562 257.457031 13.476562 C 258.140625 16.375 253.996094 16.09375 254.125 13.476562 Z M 254.125 13.476562 " fill-opacity="1" fill-rule="nonzero"/><path fill="#00ffff" d="M 119.632812 94.910156 C 121.46875 95.171875 123.363281 97.492188 121.335938 98.535156 C 120.582031 97.542969 119.964844 96.464844 119.632812 94.910156 Z M 119.632812 94.910156 " fill-opacity="1" fill-rule="nonzero"/><path fill="#00ffff" d="M 256.644531 5.867188 C 255.949219 7.605469 252.972656 8.3125 252.78125 6.507812 C 253.816406 5.410156 255.078125 5.984375 256.644531 5.867188 Z M 256.644531 5.867188 " fill-opacity="1" fill-rule="nonzero"/><path fill="#00ffff" d="M 214.988281 21.992188 C 214.421875 23.296875 213.242188 24.082031 213.054688 25.539062 C 212.933594 26.464844 212.140625 26.40625 211.082031 25.390625 C 212.082031 24.234375 213.144531 19.226562 214.988281 21.992188 Z M 214.988281 21.992188 " fill-opacity="1" fill-rule="nonzero"/><path fill="#00ffff" d="M 79.453125 52.730469 C 79.578125 54.816406 76.722656 54.207031 76.894531 52.570312 C 77.105469 50.066406 79.375 50.246094 79.453125 52.730469 Z M 79.453125 52.730469 " fill-opacity="1" fill-rule="nonzero"/><path fill="#00ffff" d="M 260.484375 6.292969 C 260.625 5.867188 260.863281 5.515625 261.191406 5.214844 C 262.519531 5.257812 263.597656 6.285156 262.972656 6.851562 C 262.210938 7.882812 261.621094 6.710938 260.941406 6.660156 C 260.78125 6.648438 260.636719 6.421875 260.484375 6.292969 Z M 260.484375 6.292969 " fill-opacity="1" fill-rule="nonzero"/><path fill="#00ffff" d="M 318.667969 47.339844 C 319.710938 48.1875 319.738281 50.324219 317.847656 49.851562 C 316.292969 49.183594 316.679688 47.171875 318.667969 47.339844 Z M 318.667969 47.339844 " fill-opacity="1" fill-rule="nonzero"/><path fill="#00ffff" d="M 292.664062 61.785156 C 291.636719 64.019531 290.460938 62.746094 289.132812 62.582031 C 289.539062 61.789062 289.867188 61.140625 290.300781 60.289062 C 291.152344 60.828125 291.859375 61.277344 292.664062 61.785156 Z M 292.664062 61.785156 " fill-opacity="1" fill-rule="nonzero"/><path fill="#00ffff" d="M 323.660156 47.46875 C 322.796875 48.3125 322.164062 48.660156 321.53125 47.589844 C 321.527344 46.714844 322.136719 46.265625 322.867188 45.832031 C 323.109375 46.332031 323.347656 46.816406 323.660156 47.46875 Z M 323.660156 47.46875 " fill-opacity="1" fill-rule="nonzero"/><path fill="#00ffff" d="M 265.917969 54.214844 C 266.105469 54.902344 266.3125 55.320312 266.296875 55.734375 C 266.03125 56.359375 265.082031 56.207031 265.078125 55.5 C 265.578125 54.722656 265.988281 53.984375 265.308594 53.097656 C 265.265625 53.042969 265.351562 52.882812 265.378906 52.773438 C 266.5625 50.621094 268.027344 53.539062 265.917969 54.214844 Z M 265.917969 54.214844 " fill-opacity="1" fill-rule="nonzero"/><path fill="#00ffff" d="M 253.152344 52.800781 C 253.296875 52.160156 253.453125 51.46875 253.613281 50.753906 C 256.316406 50.792969 255.355469 54.507812 253.152344 52.800781 Z M 253.152344 52.800781 " fill-opacity="1" fill-rule="nonzero"/><path fill="#00ffff" d="M 222.171875 8.828125 C 221.457031 8.726562 220.742188 8.625 219.902344 8.507812 C 220.886719 7.664062 221.425781 6.882812 222.726562 7.351562 C 222.542969 7.84375 222.558594 8.449219 222.171875 8.828125 Z M 222.171875 8.828125 " fill-opacity="1" fill-rule="nonzero"/><path fill="#00ffff" d="M 70.058594 53.546875 C 70.265625 55.671875 67.644531 55.691406 67.6875 53.832031 C 67.816406 52.25 69.484375 52.511719 70.058594 53.546875 Z M 70.058594 53.546875 " fill-opacity="1" fill-rule="nonzero"/><path fill="#00ffff" d="M 85.792969 78.363281 C 87.011719 79.21875 87.636719 80.496094 85.886719 80.96875 C 83.691406 80.886719 84.652344 79.378906 85.792969 78.363281 Z M 85.792969 78.363281 " fill-opacity="1" fill-rule="nonzero"/><path fill="#00ffff" d="M 329.953125 51.738281 C 328.820312 52.390625 328.007812 52.859375 326.894531 53.503906 C 327.371094 51.683594 328.613281 52.015625 329.953125 51.738281 Z M 329.953125 51.738281 " fill-opacity="1" fill-rule="nonzero"/><path fill="#00ffff" d="M 186.320312 19.144531 C 184.472656 18.886719 182.625 17.351562 184.789062 16.488281 C 186.09375 16.988281 185.890625 17.46875 186.320312 19.144531 Z M 186.320312 19.144531 " fill-opacity="1" fill-rule="nonzero"/><path fill="#00ffff" d="M 132.035156 92.800781 C 133.613281 92.628906 133.761719 94.144531 132.671875 94.753906 C 131.226562 95.082031 131.261719 93.527344 132.035156 92.800781 Z M 132.035156 92.800781 " fill-opacity="1" fill-rule="nonzero"/><path fill="#00ffff" d="M 204.148438 7.574219 C 202.8125 8.707031 201.941406 8.246094 200.691406 7.4375 C 202 7.105469 202.882812 7.308594 204.148438 7.574219 Z M 204.148438 7.574219 " fill-opacity="1" fill-rule="nonzero"/><path fill="#00ffff" d="M 123.792969 23.234375 C 124.589844 22.742188 125.28125 22.3125 126.109375 21.800781 C 125.972656 23.84375 125.628906 24.046875 123.792969 23.234375 Z M 123.792969 23.234375 " fill-opacity="1" fill-rule="nonzero"/><path fill="#00ffff" d="M 217.292969 51.367188 C 217.789062 51.984375 217.703125 52.449219 217.070312 52.875 C 215.039062 54.074219 215.070312 51.292969 217.292969 51.367188 Z M 217.292969 51.367188 " fill-opacity="1" fill-rule="nonzero"/><path fill="#00ffff" d="M 82.472656 28.320312 C 81.792969 27.328125 81.582031 26.734375 82.566406 25.980469 C 84.167969 26.21875 83.625 27.652344 82.472656 28.320312 Z M 82.472656 28.320312 " fill-opacity="1" fill-rule="nonzero"/><path fill="#00ffff" d="M 241.652344 9.925781 C 241.433594 11.226562 239.105469 10.746094 239.761719 9.390625 C 240.296875 8.359375 241.902344 8.535156 241.652344 9.925781 Z M 241.652344 9.925781 " fill-opacity="1" fill-rule="nonzero"/><path fill="#00ffff" d="M 232.980469 62.214844 C 231.824219 62.492188 231.28125 61.949219 230.902344 61.148438 C 231.429688 60.132812 232.648438 61.304688 232.980469 62.214844 Z M 232.980469 62.214844 " fill-opacity="1" fill-rule="nonzero"/><path fill="#00ffff" d="M 107.960938 25.132812 C 108.789062 24.207031 110.171875 23.742188 110.246094 25.09375 C 109.71875 26.464844 109.066406 25.84375 107.960938 25.132812 Z M 107.960938 25.132812 " fill-opacity="1" fill-rule="nonzero"/><path fill="#00ffff" d="M 75.453125 71.886719 C 76.066406 72.722656 76.683594 73.753906 75.386719 73.96875 C 73.824219 73.777344 74.363281 72.589844 75.453125 71.886719 Z M 75.453125 71.886719 " fill-opacity="1" fill-rule="nonzero"/><path fill="#00ffff" d="M 215.59375 10.667969 C 216.441406 11.722656 216.746094 12.203125 215.757812 12.914062 C 214.21875 13.132812 214.933594 11.699219 215.59375 10.667969 Z M 215.59375 10.667969 " fill-opacity="1" fill-rule="nonzero"/><path fill="#00ffff" d="M 218.054688 62.550781 C 217.03125 63.445312 215.617188 63.839844 215.71875 62.183594 C 216.300781 60.84375 217.335938 61.484375 218.054688 62.550781 Z M 218.054688 62.550781 " fill-opacity="1" fill-rule="nonzero"/><path fill="#00ffff" d="M 111.90625 72.839844 C 111.109375 73.878906 110.582031 74.34375 109.828125 73.308594 C 109.515625 71.980469 110.945312 72.394531 111.90625 72.839844 Z M 111.90625 72.839844 " fill-opacity="1" fill-rule="nonzero"/><path fill="#00ffff" d="M 66.453125 13.402344 C 65.617188 14.304688 64.914062 14.601562 64.519531 13.476562 C 64.871094 12.382812 65.5625 12.554688 66.453125 13.402344 Z M 66.453125 13.402344 " fill-opacity="1" fill-rule="nonzero"/><path fill="#00ffff" d="M 105.316406 71.550781 C 104.417969 70.605469 104.164062 70.191406 105.3125 69.710938 C 106.34375 70.011719 105.8125 70.675781 105.316406 71.550781 Z M 105.316406 71.550781 " fill-opacity="1" fill-rule="nonzero"/><path fill="#00ffff" d="M 190.609375 13.558594 C 191.386719 12.652344 191.976562 12.257812 192.703125 13.210938 C 192.789062 14.652344 191.523438 14.558594 190.609375 13.558594 Z M 190.609375 13.558594 " fill-opacity="1" fill-rule="nonzero"/><path fill="#00ffff" d="M 119.371094 59.480469 C 120.5 59.027344 119.007812 58.085938 119.914062 57.429688 C 120.769531 57.570312 121.851562 58.996094 120.375 59.175781 C 120.058594 59.15625 119.328125 58.878906 119.371094 59.480469 Z M 119.371094 59.480469 " fill-opacity="1" fill-rule="nonzero"/><path fill="#00ffff" d="M 203.007812 60.550781 C 202.558594 61.125 201.890625 60.945312 201.246094 60.953125 C 200.980469 59.859375 202.703125 59.679688 203.007812 60.550781 Z M 203.007812 60.550781 " fill-opacity="1" fill-rule="nonzero"/><path fill="#00ffff" d="M 233.15625 17.777344 C 232.4375 16.699219 233.074219 16.023438 233.898438 17.019531 C 233.691406 17.230469 233.484375 17.441406 233.15625 17.777344 Z M 233.15625 17.777344 " fill-opacity="1" fill-rule="nonzero"/><path fill="#00ffff" d="M 194.730469 10.574219 C 193.785156 9.890625 193.558594 9.195312 194.5625 8.746094 C 195.699219 8.976562 195.53125 9.707031 194.730469 10.574219 Z M 194.730469 10.574219 " fill-opacity="1" fill-rule="nonzero"/><path fill="#00ffff" d="M 206.984375 55.679688 C 205.933594 56.410156 205.382812 55.691406 206.3125 54.917969 C 206.503906 55.136719 206.695312 55.355469 206.984375 55.679688 Z M 206.984375 55.679688 " fill-opacity="1" fill-rule="nonzero"/><path fill="#00ffff" d="M 223.632812 54.351562 C 223.082031 54.546875 222.679688 54.929688 222.421875 54.167969 C 222.972656 53.847656 223.230469 53.617188 223.632812 54.351562 Z M 223.632812 54.351562 " fill-opacity="1" fill-rule="nonzero"/><path fill="#00ffff" d="M 246.996094 63.457031 C 247.390625 62.617188 248.605469 62.421875 248.503906 63.445312 C 248.085938 64.234375 247.617188 64.132812 246.996094 63.457031 Z M 246.996094 63.457031 " fill-opacity="1" fill-rule="nonzero"/><path fill="#00ffff" d="M 296.269531 48.113281 C 295.417969 48.449219 294.582031 49.203125 294.265625 47.992188 C 294.566406 46.890625 295.734375 46.984375 296.269531 48.113281 Z M 296.269531 48.113281 " fill-opacity="1" fill-rule="nonzero"/><path fill="#00ffff" d="M 35.496094 25.769531 C 36.109375 25.574219 35.835938 25.082031 35.902344 24.675781 C 35.949219 24.390625 36.261719 24.148438 36.640625 23.636719 C 37.046875 23.960938 37.371094 24.222656 37.992188 24.71875 C 36.753906 25.214844 36.105469 25.476562 35.460938 25.734375 C 35.460938 25.734375 35.496094 25.769531 35.496094 25.769531 Z M 35.496094 25.769531 " fill-opacity="1" fill-rule="nonzero"/><path fill="#00ffff" d="M 252.191406 12.597656 C 251.21875 11.613281 251.570312 11.382812 252.476562 10.929688 C 253.4375 11.378906 252.878906 12.015625 252.191406 12.597656 Z M 252.191406 12.597656 " fill-opacity="1" fill-rule="nonzero"/><path fill="#00ffff" d="M 252.835938 20.511719 C 251.925781 21.578125 251.59375 21.820312 250.902344 20.722656 C 251.183594 19.78125 251.859375 20.089844 252.835938 20.511719 Z M 252.835938 20.511719 " fill-opacity="1" fill-rule="nonzero"/><path fill="#00ffff" d="M 117.449219 81.585938 C 116.578125 82.171875 116.449219 81.425781 116.105469 80.78125 C 116.820312 80.1875 117.828125 80.441406 117.449219 81.585938 Z M 117.449219 81.585938 " fill-opacity="1" fill-rule="nonzero"/><path fill="#00ffff" d="M 284.480469 56.828125 C 283.679688 57.460938 283.367188 57.882812 282.707031 56.953125 C 283.375 56.15625 283.496094 55.847656 284.480469 56.828125 Z M 284.480469 56.828125 " fill-opacity="1" fill-rule="nonzero"/><path fill="#00ffff" d="M 91.492188 22.324219 C 91.3125 22.226562 91.132812 22.128906 90.953125 22.03125 C 91.140625 21.828125 91.324219 21.628906 91.511719 21.425781 C 91.957031 21.777344 91.957031 21.996094 91.492188 22.324219 Z M 91.492188 22.324219 " fill-opacity="1" fill-rule="nonzero"/><path fill="#00ffff" d="M 61.21875 51.367188 C 60.613281 51.621094 60.289062 51.824219 59.949219 51.859375 C 59.011719 50.972656 60.273438 50.144531 61.21875 51.367188 Z M 61.21875 51.367188 " fill-opacity="1" fill-rule="nonzero"/><path fill="#00ffff" d="M 281.222656 51.15625 C 280.511719 51.566406 280.117188 52.28125 279.589844 51.625 C 279.367188 50.484375 280.285156 50.515625 281.222656 51.15625 Z M 281.222656 51.15625 " fill-opacity="1" fill-rule="nonzero"/><path fill="#00ffff" d="M 85.035156 53.246094 C 83.726562 55.113281 82.832031 53.597656 83.941406 53.355469 C 84.339844 53.453125 84.726562 53.84375 85.070312 53.269531 C 85.070312 53.269531 85.035156 53.246094 85.035156 53.246094 Z M 85.035156 53.246094 " fill-opacity="1" fill-rule="nonzero"/><path fill="#00ffff" d="M 71.90625 58.484375 C 71.027344 57.9375 71.25 57.886719 71.652344 57.269531 C 72.496094 57.585938 72.398438 57.914062 71.90625 58.484375 Z M 71.90625 58.484375 " fill-opacity="1" fill-rule="nonzero"/><path fill="#00ffff" d="M 224.085938 56.234375 C 224.800781 56.628906 224.523438 56.867188 224.207031 57.375 C 223.441406 57.117188 223.871094 56.753906 224.085938 56.234375 Z M 224.085938 56.234375 " fill-opacity="1" fill-rule="nonzero"/><path fill="#00ffff" d="M 114.5625 58.789062 C 114.777344 58.589844 115.167969 58.394531 115.175781 58.1875 C 115.0625 57.382812 115.777344 56.957031 116.320312 57.582031 C 116.089844 58.847656 115.054688 57.648438 114.523438 58.75 C 114.523438 58.75 114.5625 58.789062 114.5625 58.789062 Z M 114.5625 58.789062 " fill-opacity="1" fill-rule="nonzero"/><path fill="#00ffff" d="M 86.523438 69.214844 C 86.117188 69.832031 84.792969 70.105469 85.003906 68.953125 C 85.257812 68.074219 86.488281 67.863281 86.523438 69.214844 Z M 86.523438 69.214844 " fill-opacity="1" fill-rule="nonzero"/><path fill="#00ffff" d="M 166.769531 65.316406 C 165.789062 66.011719 164.167969 66.144531 165.621094 65.035156 C 165.765625 64.964844 166.019531 65.121094 166.769531 65.316406 Z M 166.769531 65.316406 " fill-opacity="1" fill-rule="nonzero"/><path fill="#00ffff" d="M 151.109375 64.828125 C 150.933594 64.75 150.757812 64.667969 150.582031 64.585938 C 150.765625 64.398438 150.953125 64.207031 151.136719 64.015625 C 151.269531 64.164062 151.40625 64.308594 151.539062 64.453125 C 151.394531 64.578125 151.25 64.703125 151.109375 64.828125 Z M 151.109375 64.828125 " fill-opacity="1" fill-rule="nonzero"/><path fill="#00ffff" d="M 170.355469 69.605469 C 171.070312 70.191406 170.921875 71.300781 169.972656 71.03125 C 169.363281 70.441406 169.554688 70.003906 170.355469 69.605469 Z M 170.355469 69.605469 " fill-opacity="1" fill-rule="nonzero"/><path fill="#00ffff" d="M 239.082031 26.964844 C 239.171875 26.117188 238.167969 24.464844 239.289062 24.183594 C 240.378906 24.480469 239.4375 26.117188 239.546875 26.964844 C 239.394531 26.964844 239.238281 26.964844 239.082031 26.964844 Z M 239.082031 26.964844 " fill-opacity="1" fill-rule="nonzero"/><path fill="#00ffff" d="M 259.898438 54.007812 C 259.8125 53.976562 259.726562 53.949219 259.640625 53.917969 C 259.789062 53.722656 259.800781 53.34375 260.109375 53.566406 C 260.039062 53.714844 259.96875 53.859375 259.898438 54.007812 Z M 259.898438 54.007812 " fill-opacity="1" fill-rule="nonzero"/><path fill="#00ffff" d="M 226.5625 9.886719 C 227.195312 10.371094 227.425781 10.855469 226.71875 11.191406 C 225.867188 11.042969 226.039062 10.539062 226.5625 9.886719 Z M 226.5625 9.886719 " fill-opacity="1" fill-rule="nonzero"/></svg>