<svg xmlns="http://www.w3.org/2000/svg" xmlns:xlink="http://www.w3.org/1999/xlink" width="500" zoomAndPan="magnify" viewBox="0 0 375 374.999991" height="500" preserveAspectRatio="xMidYMid meet" version="1.0"><path fill="#ffffff" d="M 282.8125 223.304688 C 276.96875 219.878906 269.789062 219.953125 263.976562 223.40625 L 234.542969 240.945312 C 227.953125 244.871094 219.722656 244.410156 213.679688 239.691406 C 203.234375 231.535156 186.414062 217.808594 171.785156 203.175781 C 157.152344 188.546875 143.425781 171.726562 135.269531 161.28125 C 130.550781 155.238281 130.089844 147.007812 134.015625 140.417969 L 151.554688 110.984375 C 155.023438 105.171875 155.050781 97.933594 151.628906 92.09375 L 108.4375 18.3125 C 104.25 11.179688 95.933594 7.667969 87.890625 9.636719 C 80.078125 11.539062 69.9375 16.171875 59.304688 26.816406 C 26.011719 60.109375 8.328125 116.261719 133.527344 241.460938 C 258.726562 366.660156 314.867188 348.992188 348.171875 315.6875 C 358.832031 305.023438 363.453125 294.867188 365.367188 287.039062 C 367.308594 279.011719 363.855469 270.753906 356.734375 266.582031 C 338.949219 256.179688 300.59375 233.722656 282.8125 223.304688 Z M 282.8125 223.304688 " fill-opacity="1" fill-rule="nonzero"/></svg>