<svg xmlns="http://www.w3.org/2000/svg" xmlns:xlink="http://www.w3.org/1999/xlink" width="500" zoomAndPan="magnify" viewBox="0 0 375 374.999991" height="500" preserveAspectRatio="xMidYMid meet" version="1.0"><defs><clipPath id="f2892dfcc5"><path d="M 23.4375 0 L 351.9375 0 L 351.9375 375 L 23.4375 375 Z M 23.4375 0 " clip-rule="nonzero"/></clipPath></defs><g clip-path="url(#f2892dfcc5)"><path fill="#ffffff" d="M 340.492188 82.371094 C 301.128906 82.371094 269.105469 50.347656 269.105469 10.984375 C 269.105469 4.917969 264.1875 0 258.121094 0 L 199.28125 0 C 193.214844 0 188.292969 4.917969 188.292969 10.984375 L 188.292969 252.222656 C 188.292969 275.363281 169.464844 294.1875 146.324219 294.1875 C 123.183594 294.1875 104.359375 275.363281 104.359375 252.222656 C 104.359375 229.078125 123.183594 210.253906 146.324219 210.253906 C 152.394531 210.253906 157.3125 205.335938 157.3125 199.265625 L 157.3125 140.425781 C 157.3125 134.363281 152.394531 129.441406 146.324219 129.441406 C 78.625 129.441406 23.546875 184.523438 23.546875 252.222656 C 23.546875 319.921875 78.625 375 146.324219 375 C 214.027344 375 269.105469 319.921875 269.105469 252.222656 L 269.105469 145.441406 C 290.96875 157.097656 315.304688 163.183594 340.492188 163.183594 C 346.558594 163.183594 351.476562 158.265625 351.476562 152.199219 L 351.476562 93.359375 C 351.476562 87.292969 346.558594 82.371094 340.492188 82.371094 Z M 340.492188 82.371094 " fill-opacity="1" fill-rule="nonzero"/></g></svg>