<svg xmlns="http://www.w3.org/2000/svg" xmlns:xlink="http://www.w3.org/1999/xlink" width="500" zoomAndPan="magnify" viewBox="0 0 375 374.999991" height="500" preserveAspectRatio="xMidYMid meet" version="1.0"><defs><clipPath id="2fa489e66b"><path d="M 15.234375 0 L 359.484375 0 L 359.484375 375 L 15.234375 375 Z M 15.234375 0 " clip-rule="nonzero"/></clipPath></defs><g clip-path="url(#2fa489e66b)"><path fill="#ffffff" d="M 187.265625 129.066406 L 277.488281 0.0429688 L 359.765625 0.0429688 L 228.40625 187.5 L 359.765625 374.957031 L 277.488281 374.957031 L 187.265625 246.402344 L 97.042969 374.957031 L 15.234375 374.957031 L 146.59375 187.5 L 15.234375 0.0429688 L 97.042969 0.0429688 Z M 90.03125 13.597656 L 187.265625 152.4375 L 284.5 13.597656 L 334.054688 13.597656 L 212.042969 187.5 L 334.054688 361.871094 L 284.5 361.871094 L 187.265625 222.5625 L 90.03125 361.871094 L 40.945312 361.871094 L 162.957031 187.5 L 40.945312 13.597656 Z M 90.03125 13.597656 " fill-opacity="1" fill-rule="evenodd"/></g></svg>