<svg xmlns="http://www.w3.org/2000/svg" xmlns:xlink="http://www.w3.org/1999/xlink" width="500" zoomAndPan="magnify" viewBox="0 0 375 374.999991" height="500" preserveAspectRatio="xMidYMid meet" version="1.0"><defs><clipPath id="d324e60490"><path d="M 0 37.5 L 375 37.5 L 375 318.75 L 0 318.75 Z M 0 37.5 " clip-rule="nonzero"/></clipPath></defs><g clip-path="url(#d324e60490)"><path fill="#ffffff" d="M 75 37.5 C 33.613281 37.5 0 71.113281 0 112.5 L 0 243.75 C 0 285.136719 33.613281 318.75 75 318.75 L 300 318.75 C 341.386719 318.75 375 285.136719 375 243.75 L 375 112.5 C 375 71.113281 341.386719 37.5 300 37.5 Z M 75 56.25 L 300 56.25 C 331.324219 56.25 356.25 81.175781 356.25 112.5 L 356.25 243.75 C 356.25 275.074219 331.324219 300 300 300 L 75 300 C 43.675781 300 18.75 275.074219 18.75 243.75 L 18.75 112.5 C 18.75 81.175781 43.675781 56.25 75 56.25 Z M 144.578125 112.5 C 143.996094 112.546875 143.421875 112.648438 142.855469 112.800781 C 142.289062 112.953125 141.742188 113.15625 141.21875 113.414062 C 140.691406 113.671875 140.191406 113.972656 139.722656 114.324219 C 139.25 114.671875 138.816406 115.0625 138.417969 115.492188 C 138.023438 115.921875 137.667969 116.386719 137.359375 116.882812 C 137.046875 117.382812 136.789062 117.902344 136.574219 118.449219 C 136.363281 118.996094 136.203125 119.558594 136.09375 120.132812 C 135.988281 120.707031 135.9375 121.289062 135.9375 121.875 L 135.9375 234.375 C 135.933594 234.957031 135.984375 235.53125 136.089844 236.101562 C 136.195312 236.675781 136.351562 237.230469 136.558594 237.773438 C 136.765625 238.3125 137.023438 238.832031 137.324219 239.328125 C 137.628906 239.820312 137.976562 240.28125 138.367188 240.710938 C 138.753906 241.144531 139.179688 241.535156 139.644531 241.882812 C 140.105469 242.234375 140.597656 242.539062 141.113281 242.800781 C 141.632812 243.058594 142.171875 243.269531 142.730469 243.429688 C 143.289062 243.589844 143.855469 243.695312 144.433594 243.75 C 146.34375 243.964844 148.152344 243.621094 149.851562 242.726562 L 252.976562 186.476562 C 253.730469 186.074219 254.414062 185.582031 255.027344 184.996094 C 255.644531 184.414062 256.171875 183.753906 256.609375 183.027344 C 257.046875 182.296875 257.382812 181.523438 257.609375 180.703125 C 257.835938 179.882812 257.949219 179.050781 257.949219 178.199219 C 257.949219 177.347656 257.835938 176.515625 257.609375 175.695312 C 257.382812 174.875 257.046875 174.101562 256.609375 173.371094 C 256.171875 172.644531 255.644531 171.984375 255.027344 171.402344 C 254.414062 170.816406 253.730469 170.324219 252.976562 169.921875 L 149.851562 113.671875 C 148.214844 112.753906 146.457031 112.363281 144.578125 112.5 Z M 154.6875 137.84375 L 228.660156 178.125 L 154.6875 218.554688 Z M 154.6875 137.84375 " fill-opacity="1" fill-rule="nonzero"/></g></svg>